<svg viewBox="0 0 600 400" xmlns="http://www.w3.org/2000/svg">
<g transform="translate(72, 364)">
<g>
<g>
<path d="M0,-85 L0,-85 L2.4,-85 L4.8,-85 L7.2,-85 L9.6,-85 L12,-85 L14.4,-85 L16.8,-85 L19.2,-85 L21.6,-85 L24,-85 L26.4,-85 L28.8,-85 L31.2,-85 L33.6,-85 L36,-85 L38.4,-85 L40.8,-85 L43.2,-85 L45.6,-85 L48,-85 L50.4,-85 L52.8,-85 L55.2,-85 L57.6,-85 L60,-85 L62.4,-85 L64.8,-85 L67.2,-85 L69.6,-85 L72,-85 L74.4,-85 L76.8,-85 L79.2,-85 L81.6,-85 L84,-85 L86.4,-85 L88.8,-85 L91.2,-85 L93.6,-85 L96,-85 L98.4,-85 L100.8,-85 L103.2,-85 L105.6,-85 L108,-85 L110.4,-85 L112.8,-85 L115.2,-85 L117.6,-85 L120,-85 L122.4,-85 L124.8,-85 L127.2,-85 L129.6,-85 L132,-85 L134.4,-85 L136.8,-85 L139.2,-85 L141.6,-85 L144,-85 L146.4,-85 L148.8,-85 L151.2,-85 L153.6,-85 L156,-85 L158.4,-85 L160.8,-85 L163.2,-85 L165.6,-85 L168,-85 L170.4,-85 L172.8,-85 L175.2,-85 L177.6,-85 L180,-85 L182.4,-85 L184.8,-85 L187.2,-85 L189.6,-85 L192,-85 L194.4,-85 L196.8,-85 L199.2,-85 L201.6,-85 L204,-85 L206.4,-85 L208.8,-85 L211.2,-85 L213.6,-85 L216,-85 L218.4,-85 L220.8,-85 L223.2,-85 L225.6,-85 L228,-85 L230.4,-85 L232.8,-85 L235.2,-85 L237.6,-85 L240,-85 L242.4,-95.2 L244.8,-105.4 L247.2,-115.6 L249.6,-125.8 L252,-136 L254.4,-146.2 L256.8,-156.4 L259.2,-166.6 L261.6,-176.8 L264,-187 L266.4,-197.2 L268.8,-207.4 L271.2,-217.6 L273.6,-227.8 L276,-238 L278.4,-248.2 L280.8,-258.4 L283.2,-268.6 L285.6,-278.8 L288,-289 L290.4,-299.2 L292.8,-309.4 L295.2,-319.6 L297.6,-329.8 L300,-340 L302.4,-350.2 L304.8,-360.4 L307.2,-370.6 L309.6,-380.8 L312,-391 L314.4,-401.2 L316.8,-411.4 L319.2,-421.6 L321.6,-431.8 L324,-442 L326.4,-452.2 L328.8,-462.4 L331.2,-472.6 L333.6,-482.8 L336,-493 L338.4,-503.2 L340.8,-513.4 L343.2,-523.6 L345.6,-533.8 L348,-544 L350.4,-554.2 L352.8,-564.4 L355.2,-574.6 L357.6,-584.8 L360,-595 L362.4,-605.2 L364.8,-615.4 L367.2,-625.6 L369.6,-635.8 L372,-646 L374.4,-656.2 L376.8,-666.4 L379.2,-676.6 L381.6,-686.8 L384,-697 L386.4,-707.2 L388.8,-717.4 L391.2,-727.6 L393.6,-737.8 L396,-748 L398.4,-758.2 L400.8,-768.4 L403.2,-778.6 L405.6,-788.8 L408,-799 L410.4,-809.2 L412.8,-819.4 L415.2,-829.6 L417.6,-839.8 L420,-850 L422.4,-860.2 L424.8,-870.4 L427.2,-880.6 L429.6,-890.8 L432,-901 L434.4,-911.2 L436.8,-921.4 L439.2,-931.6 L441.6,-941.8 L444,-952 L446.4,-962.2 L448.8,-972.4 L451.2,-982.6 L453.6,-992.8 L456,-1003 L458.4,-1013.2 L460.8,-1023.4 L463.2,-1033.6 L465.6,-1043.8 L468,-1054 L470.4,-1064.2 L472.8,-1074.4 L475.2,-1084.6 L477.6,-1094.8 L480,-1105" fill="none" stroke="black" stroke-linejoin="round" stroke-width="2"/>
</g>
</g>
<g>
<g>
<line stroke="black" stroke-width="1" x1="40" x2="40" y1="0" y2="10"/>
<line stroke="black" stroke-width="1" x1="240" x2="240" y1="0" y2="10"/>
<line stroke="black" stroke-width="1" x1="440" x2="440" y1="0" y2="10"/>
</g>
<line stroke="black" stroke-width="1" x1="0" x2="480" y1="0" y2="0"/>
<g>
<text font-size="12" text-anchor="middle" x="40" y="20">
-5
</text>
<text font-size="12" text-anchor="middle" x="240" y="20">
0
</text>
<text font-size="12" text-anchor="middle" x="440" y="20">
5
</text>
</g>
<text font-size="12" text-anchor="middle" x="240" y="30">
x
</text>
</g>
<g>
<g>
<line stroke="black" stroke-width="1" x1="0" x2="-10" y1="0" y2="0"/>
<line stroke="black" stroke-width="1" x1="0" x2="-10" y1="-85" y2="-85"/>
<line stroke="black" stroke-width="1" x1="0" x2="-10" y1="-170" y2="-170"/>
<line stroke="black" stroke-width="1" x1="0" x2="-10" y1="-255" y2="-255"/>
<line stroke="black" stroke-width="1" x1="0" x2="-10" y1="-340" y2="-340"/>
</g>
<line stroke="black" stroke-width="1" x1="0" x2="0" y1="0" y2="-340"/>
<g>
<text dominant-baseline="middle" font-size="12" text-anchor="end" x="-15" y="0">
-0.5
</text>
<text dominant-baseline="middle" font-size="12" text-anchor="end" x="-15" y="-85">
0
</text>
<text dominant-baseline="middle" font-size="12" text-anchor="end" x="-15" y="-170">
0.5
</text>
<text dominant-baseline="middle" font-size="12" text-anchor="end" x="-15" y="-255">
1
</text>
<text dominant-baseline="middle" font-size="12" text-anchor="end" x="-15" y="-340">
1.5
</text>
</g>
<text font-size="12" text-anchor="middle" transform="rotate(-90 -48 -170)" x="-48" y="-182">
y
</text>
</g>
</g>
</svg>