<svg viewBox="0 0 600 400" xmlns="http://www.w3.org/2000/svg">
<g transform="translate(72, 364)">
<g>
<g>
<path d="M0,-85.42035 L0,-85.42035 L2.4,-85.44627 L4.8,-85.47379 L7.2,-85.503 L9.6,-85.534004 L12,-85.56692 L14.4,-85.60185 L16.8,-85.63892 L19.2,-85.678276 L21.6,-85.72004 L24,-85.764366 L26.4,-85.81141 L28.8,-85.86133 L31.2,-85.9143 L33.6,-85.97052 L36,-86.03017 L38.4,-86.09346 L40.8,-86.160614 L43.2,-86.23186 L45.6,-86.30745 L48,-86.387634 L50.4,-86.4727 L52.8,-86.56293 L55.2,-86.65863 L57.6,-86.76013 L60,-86.86778 L62.4,-86.98193 L64.8,-87.102974 L67.2,-87.2313 L69.6,-87.367355 L72,-87.51159 L74.4,-87.66446 L76.8,-87.82648 L79.2,-87.99818 L81.6,-88.18011 L84,-88.37285 L86.4,-88.57703 L88.8,-88.79328 L91.2,-89.0223 L93.6,-89.264786 L96,-89.52149 L98.4,-89.7932 L100.8,-90.080734 L103.2,-90.38496 L105.6,-90.706764 L108,-91.047104 L110.4,-91.406944 L112.8,-91.78731 L115.2,-92.18926 L117.6,-92.61391 L120,-93.0624 L122.4,-93.53592 L124.8,-94.03569 L127.2,-94.562996 L129.6,-95.11914 L132,-95.70547 L134.4,-96.323364 L136.8,-96.97424 L139.2,-97.65955 L141.6,-98.38076 L144,-99.13936 L146.4,-99.93687 L148.8,-100.7748 L151.2,-101.65469 L153.6,-102.57808 L156,-103.54646 L158.4,-104.56135 L160.8,-105.6242 L163.2,-106.736465 L165.6,-107.89952 L168,-109.11468 L170.4,-110.3832 L172.8,-111.70623 L175.2,-113.08483 L177.6,-114.51993 L180,-116.01234 L182.4,-117.562706 L184.8,-119.17153 L187.2,-120.83911 L189.6,-122.56556 L192,-124.350784 L194.4,-126.19446 L196.8,-128.09602 L199.2,-130.05466 L201.6,-132.06929 L204,-134.13858 L206.4,-136.26091 L208.8,-138.43439 L211.2,-140.65681 L213.6,-142.92574 L216,-145.23843 L218.4,-147.59189 L220.8,-149.98286 L223.2,-152.40785 L225.6,-154.86313 L228,-157.34477 L230.4,-159.84868 L232.8,-162.37059 L235.2,-164.90611 L237.6,-167.45076 L240,-170 L242.4,-172.54924 L244.8,-175.09389 L247.2,-177.62941 L249.6,-180.15132 L252,-182.65523 L254.4,-185.13687 L256.8,-187.59215 L259.2,-190.01714 L261.6,-192.40811 L264,-194.76157 L266.4,-197.07426 L268.8,-199.34319 L271.2,-201.56561 L273.6,-203.73909 L276,-205.86142 L278.4,-207.93071 L280.8,-209.94534 L283.2,-211.90398 L285.6,-213.80554 L288,-215.64922 L290.4,-217.43443 L292.8,-219.16089 L295.2,-220.82848 L297.6,-222.43729 L300,-223.98766 L302.4,-225.48007 L304.8,-226.91518 L307.2,-228.29378 L309.6,-229.6168 L312,-230.88531 L314.4,-232.10048 L316.8,-233.26353 L319.2,-234.3758 L321.6,-235.43866 L324,-236.45354 L326.4,-237.42192 L328.8,-238.3453 L331.2,-239.2252 L333.6,-240.06314 L336,-240.86064 L338.4,-241.61925 L340.8,-242.34045 L343.2,-243.02576 L345.6,-243.67664 L348,-244.29453 L350.4,-244.88086 L352.8,-245.437 L355.2,-245.96431 L357.6,-246.46408 L360,-246.9376 L362.4,-247.3861 L364.8,-247.81075 L367.2,-248.21269 L369.6,-248.59306 L372,-248.9529 L374.4,-249.29323 L376.8,-249.61504 L379.2,-249.91927 L381.6,-250.2068 L384,-250.47852 L386.4,-250.73521 L388.8,-250.9777 L391.2,-251.20671 L393.6,-251.42297 L396,-251.62715 L398.4,-251.8199 L400.8,-252.00182 L403.2,-252.17352 L405.6,-252.33554 L408,-252.48842 L410.4,-252.63264 L412.8,-252.76869 L415.2,-252.89703 L417.6,-253.01807 L420,-253.13222 L422.4,-253.23987 L424.8,-253.34137 L427.2,-253.43707 L429.6,-253.5273 L432,-253.61237 L434.4,-253.69255 L436.8,-253.76814 L439.2,-253.83939 L441.6,-253.90654 L444,-253.96983 L446.4,-254.02948 L448.8,-254.0857 L451.2,-254.13867 L453.6,-254.1886 L456,-254.23563 L458.4,-254.27995 L460.8,-254.32172 L463.2,-254.36107 L465.6,-254.39815 L468,-254.43309 L470.4,-254.46599 L472.8,-254.497 L475.2,-254.52621 L477.6,-254.55373 L480,-254.57965" fill="none" stroke="black" stroke-linejoin="round" stroke-width="2"/>
</g>
</g>
<g>
<g>
<line stroke="black" stroke-width="1" x1="40" x2="40" y1="0" y2="10"/>
<line stroke="black" stroke-width="1" x1="240" x2="240" y1="0" y2="10"/>
<line stroke="black" stroke-width="1" x1="440" x2="440" y1="0" y2="10"/>
</g>
<line stroke="black" stroke-width="1" x1="0" x2="480" y1="0" y2="0"/>
<g>
<text font-size="12" text-anchor="middle" x="40" y="20">
-5
</text>
<text font-size="12" text-anchor="middle" x="240" y="20">
0
</text>
<text font-size="12" text-anchor="middle" x="440" y="20">
5
</text>
</g>
<text font-size="12" text-anchor="middle" x="240" y="30">
x
</text>
</g>
<g>
<g>
<line stroke="black" stroke-width="1" x1="0" x2="-10" y1="0" y2="0"/>
<line stroke="black" stroke-width="1" x1="0" x2="-10" y1="-85" y2="-85"/>
<line stroke="black" stroke-width="1" x1="0" x2="-10" y1="-170" y2="-170"/>
<line stroke="black" stroke-width="1" x1="0" x2="-10" y1="-255" y2="-255"/>
<line stroke="black" stroke-width="1" x1="0" x2="-10" y1="-340" y2="-340"/>
</g>
<line stroke="black" stroke-width="1" x1="0" x2="0" y1="0" y2="-340"/>
<g>
<text dominant-baseline="middle" font-size="12" text-anchor="end" x="-15" y="0">
-0.5
</text>
<text dominant-baseline="middle" font-size="12" text-anchor="end" x="-15" y="-85">
0
</text>
<text dominant-baseline="middle" font-size="12" text-anchor="end" x="-15" y="-170">
0.5
</text>
<text dominant-baseline="middle" font-size="12" text-anchor="end" x="-15" y="-255">
1
</text>
<text dominant-baseline="middle" font-size="12" text-anchor="end" x="-15" y="-340">
1.5
</text>
</g>
<text font-size="12" text-anchor="middle" transform="rotate(-90 -48 -170)" x="-48" y="-182">
y
</text>
</g>
</g>
</svg>