<svg viewBox="0 0 600 400" xmlns="http://www.w3.org/2000/svg">
<g transform="translate(72, 364)">
<g>
<g>
<path d="M0,-85 L0,-85 L2.4,-85 L4.8,-85 L7.2,-85 L9.6,-85 L12,-85 L14.4,-85 L16.8,-85 L19.2,-85 L21.6,-85 L24,-85 L26.4,-85 L28.8,-85 L31.2,-85 L33.6,-85 L36,-85 L38.4,-85 L40.8,-85 L43.2,-85 L45.6,-85 L48,-85 L50.4,-85 L52.8,-85 L55.2,-85 L57.6,-85 L60,-85 L62.4,-85 L64.8,-85 L67.2,-85 L69.6,-85 L72,-85 L74.4,-85 L76.8,-85 L79.2,-85 L81.6,-85 L84,-85 L86.4,-85 L88.8,-85 L91.2,-85 L93.6,-85 L96,-85 L98.4,-85 L100.8,-85 L103.2,-85 L105.6,-85 L108,-85 L110.4,-85 L112.8,-85 L115.2,-85 L117.6,-85 L120,-85 L122.4,-85 L124.8,-85 L127.2,-85 L129.6,-85 L132,-85 L134.4,-85 L136.8,-85 L139.2,-85 L141.6,-85 L144,-85 L146.4,-85 L148.8,-85 L151.2,-85 L153.6,-85 L156,-85 L158.4,-85 L160.8,-85 L163.2,-85 L165.6,-85 L168,-85 L170.4,-85 L172.8,-85 L175.2,-85 L177.6,-85 L180,-85 L182.4,-85 L184.8,-85 L187.2,-85 L189.6,-85 L192,-85 L194.4,-85 L196.8,-85 L199.2,-85 L201.6,-85 L204,-85 L206.4,-85 L208.8,-85 L211.2,-85 L213.6,-85 L216,-85 L218.4,-85 L220.8,-85 L223.2,-85 L225.6,-85 L228,-85 L230.4,-85 L232.8,-85 L235.2,-85 L237.6,-85 L240,-85 L242.4,-255 L244.8,-255 L247.2,-255 L249.6,-255 L252,-255 L254.4,-255 L256.8,-255 L259.2,-255 L261.6,-255 L264,-255 L266.4,-255 L268.8,-255 L271.2,-255 L273.6,-255 L276,-255 L278.4,-255 L280.8,-255 L283.2,-255 L285.6,-255 L288,-255 L290.4,-255 L292.8,-255 L295.2,-255 L297.6,-255 L300,-255 L302.4,-255 L304.8,-255 L307.2,-255 L309.6,-255 L312,-255 L314.4,-255 L316.8,-255 L319.2,-255 L321.6,-255 L324,-255 L326.4,-255 L328.8,-255 L331.2,-255 L333.6,-255 L336,-255 L338.4,-255 L340.8,-255 L343.2,-255 L345.6,-255 L348,-255 L350.4,-255 L352.8,-255 L355.2,-255 L357.6,-255 L360,-255 L362.4,-255 L364.8,-255 L367.2,-255 L369.6,-255 L372,-255 L374.4,-255 L376.8,-255 L379.2,-255 L381.6,-255 L384,-255 L386.4,-255 L388.8,-255 L391.2,-255 L393.6,-255 L396,-255 L398.4,-255 L400.8,-255 L403.2,-255 L405.6,-255 L408,-255 L410.4,-255 L412.8,-255 L415.2,-255 L417.6,-255 L420,-255 L422.4,-255 L424.8,-255 L427.2,-255 L429.6,-255 L432,-255 L434.4,-255 L436.8,-255 L439.2,-255 L441.6,-255 L444,-255 L446.4,-255 L448.8,-255 L451.2,-255 L453.6,-255 L456,-255 L458.4,-255 L460.8,-255 L463.2,-255 L465.6,-255 L468,-255 L470.4,-255 L472.8,-255 L475.2,-255 L477.6,-255 L480,-255" fill="none" stroke="black" stroke-linejoin="round" stroke-width="2"/>
</g>
</g>
<g>
<g>
<line stroke="black" stroke-width="1" x1="40" x2="40" y1="0" y2="10"/>
<line stroke="black" stroke-width="1" x1="240" x2="240" y1="0" y2="10"/>
<line stroke="black" stroke-width="1" x1="440" x2="440" y1="0" y2="10"/>
</g>
<line stroke="black" stroke-width="1" x1="0" x2="480" y1="0" y2="0"/>
<g>
<text font-size="12" text-anchor="middle" x="40" y="20">
-5
</text>
<text font-size="12" text-anchor="middle" x="240" y="20">
0
</text>
<text font-size="12" text-anchor="middle" x="440" y="20">
5
</text>
</g>
<text font-size="12" text-anchor="middle" x="240" y="30">
x
</text>
</g>
<g>
<g>
<line stroke="black" stroke-width="1" x1="0" x2="-10" y1="0" y2="0"/>
<line stroke="black" stroke-width="1" x1="0" x2="-10" y1="-85" y2="-85"/>
<line stroke="black" stroke-width="1" x1="0" x2="-10" y1="-170" y2="-170"/>
<line stroke="black" stroke-width="1" x1="0" x2="-10" y1="-255" y2="-255"/>
<line stroke="black" stroke-width="1" x1="0" x2="-10" y1="-340" y2="-340"/>
</g>
<line stroke="black" stroke-width="1" x1="0" x2="0" y1="0" y2="-340"/>
<g>
<text dominant-baseline="middle" font-size="12" text-anchor="end" x="-15" y="0">
-0.5
</text>
<text dominant-baseline="middle" font-size="12" text-anchor="end" x="-15" y="-85">
0
</text>
<text dominant-baseline="middle" font-size="12" text-anchor="end" x="-15" y="-170">
0.5
</text>
<text dominant-baseline="middle" font-size="12" text-anchor="end" x="-15" y="-255">
1
</text>
<text dominant-baseline="middle" font-size="12" text-anchor="end" x="-15" y="-340">
1.5
</text>
</g>
<text font-size="12" text-anchor="middle" transform="rotate(-90 -48 -170)" x="-48" y="-182">
y
</text>
</g>
</g>
</svg>